<svg xmlns="http://www.w3.org/2000/svg" viewBox="0 0 150 128" width="150" height="128" role="img" aria-label="PartyPlay">
  <path d="M30 20 L30 108 L104 64 Z" fill="none" stroke="currentColor" stroke-width="7" stroke-linejoin="round"/>
  <g fill="currentColor">
    <g transform="translate(100,44) rotate(-28)"><rect x="0" y="0" width="9" height="4.4" rx="1.6"/></g>
    <g transform="translate(112,26) rotate(18)"><rect x="0" y="0" width="10" height="4.6" rx="1.7"/></g>
    <g transform="translate(92,20) rotate(-52)"><rect x="0" y="0" width="8" height="4.2" rx="1.5"/></g>
    <g transform="translate(126,44) rotate(62)"><rect x="0" y="0" width="7.5" height="4" rx="1.5"/></g>
    <g transform="translate(120,10) rotate(-12)"><rect x="0" y="0" width="7" height="3.8" rx="1.4"/></g>
    <circle cx="108" cy="36" r="2.6"/><circle cx="132" cy="30" r="2.3"/>
    <circle cx="104" cy="12" r="2.2"/><circle cx="137" cy="16" r="1.9"/>
  </g>
  <g fill="none" stroke="currentColor" stroke-linecap="round">
    <path d="M116 54 q5 -4 10 -1" stroke-width="2.6"/>
    <path d="M85 12 q4 -5 9 -3" stroke-width="2.4"/>
  </g>
</svg>
